<svg width="100" height="100" viewBox="0 0 100 100" fill="none" xmlns="http://www.w3.org/2000/svg">
<g clip-path="url(#clip0_5_223)">
<path d="M33.4089 5.31796C33.4089 2.55654 35.6475 0.31797 38.4089 0.31797H61.5495C64.3109 0.31797 66.5495 2.55654 66.5495 5.31797V94.7688C66.5495 97.5302 64.3109 99.7688 61.5495 99.7688H38.4089C35.6475 99.7688 33.4089 97.5302 33.4089 94.7688V5.31796Z" fill="#D32F2F"/>
<path d="M5.25367 33.473C2.49224 33.473 0.253662 35.7116 0.253662 38.473V61.6135C0.253662 64.375 2.49224 66.6135 5.25366 66.6135H94.7013C97.4627 66.6135 99.7013 64.375 99.7013 61.6135V38.473C99.7013 35.7116 97.4627 33.473 94.7013 33.473H5.25367Z" fill="#D32F2F"/>
<path d="M49.6389 7.58124C50.4211 7.58124 51.9855 7.94225 51.9855 9.38629C51.9855 10.8303 51.0228 64.1396 50.5415 90.6137C50.5415 91.3357 50.361 92.7798 49.6389 92.7798C48.9169 92.7798 48.7364 91.3357 48.7364 90.6137C48.2551 64.1396 47.2924 10.8303 47.2924 9.38629C47.2924 7.94225 48.8567 7.58124 49.6389 7.58124Z" fill="#FAFAFA"/>
<path d="M57.4998 15.704C58.1617 14.3803 58.0052 11.6968 52.0846 11.5524C44.6839 11.3719 40.8933 14.621 40.1713 20.3971C39.4493 26.1733 42.6984 30.5054 49.0161 33.935C55.3337 37.3646 54.4312 41.1552 54.2507 42.5993C54.0702 44.0433 53.5287 45.6679 48.8356 49.0975C44.1424 52.5271 43.6009 54.5126 43.6009 57.2202C43.6009 59.9278 44.3229 62.2744 48.4745 65.8845C52.6262 69.4946 52.6262 70.2166 52.6262 72.0217C52.6262 73.8267 52.6262 74.1877 49.7381 77.0758C46.85 79.9639 47.0305 82.491 47.0305 83.3935C47.0305 84.296 48.1135 87.3646 49.7381 88.4477C49.0161 87.9061 48.1135 85.7401 48.1135 83.0325C48.1135 80.3249 50.0991 78.7004 52.2652 76.5343C54.4312 74.3682 54.2507 72.5632 54.2507 71.1191C54.2507 69.6751 52.9872 67.148 50.8211 65.343C48.6551 63.5379 46.3085 61.0108 46.128 57.9422C45.9475 54.8737 47.933 53.2491 52.9872 49.8195C58.0413 46.3899 57.8608 41.8773 57.8608 40.7942C57.8608 39.7112 57.4998 34.296 52.6262 31.408C47.7525 28.5199 44.8644 26.3538 44.8644 21.4802C44.8644 16.6065 49.9186 16.065 53.3482 16.9675C56.0919 17.6895 57.2591 16.426 57.4998 15.704Z" fill="#FAFAFA"/>
</g>
<defs>
<clipPath id="clip0_5_223">
<rect width="100" height="100" fill="white"/>
</clipPath>
</defs>
</svg>
